<svg width="14" height="14" viewBox="0 0 14 14" fill="none" xmlns="http://www.w3.org/2000/svg">
<g clip-path="url(#clip0_3445_12516)">
<path d="M13.7239 6.59659C13.1746 5.43941 12.521 4.49566 11.763 3.76534L10.968 4.56034C11.6163 5.17987 12.181 5.99034 12.6692 6.99972C11.3692 9.69034 9.52392 10.9685 7.00204 10.9685C6.24506 10.9685 5.54782 10.8519 4.91032 10.6188L4.04892 11.4802C4.93433 11.889 5.91871 12.0935 7.00204 12.0935C10.0052 12.0935 12.2458 10.5294 13.7239 7.40128C13.7833 7.27548 13.8142 7.13807 13.8142 6.99894C13.8142 6.8598 13.7833 6.7224 13.7239 6.59659ZM12.7306 1.58659L12.0645 0.919717C12.0529 0.908095 12.0391 0.898876 12.024 0.892585C12.0088 0.886295 11.9925 0.883057 11.9761 0.883057C11.9597 0.883057 11.9434 0.886295 11.9282 0.892585C11.9131 0.898876 11.8993 0.908095 11.8877 0.919717L10.1788 2.62784C9.23658 2.14659 8.17767 1.90597 7.00204 1.90597C3.99892 1.90597 1.75829 3.47003 0.280168 6.59816C0.220755 6.72396 0.189941 6.86137 0.189941 7.0005C0.189941 7.13963 0.220755 7.27704 0.280168 7.40284C0.870689 8.64659 1.58163 9.64352 2.41298 10.3936L0.759543 12.0466C0.736119 12.07 0.722961 12.1018 0.722961 12.135C0.722961 12.1681 0.736119 12.1999 0.759543 12.2233L1.42657 12.8903C1.45001 12.9138 1.4818 12.9269 1.51493 12.9269C1.54807 12.9269 1.57985 12.9138 1.60329 12.8903L12.7306 1.76347C12.7423 1.75186 12.7515 1.73807 12.7578 1.7229C12.7641 1.70772 12.7673 1.69146 12.7673 1.67503C12.7673 1.6586 12.7641 1.64234 12.7578 1.62716C12.7515 1.61199 12.7423 1.5982 12.7306 1.58659ZM1.33486 6.99972C2.63642 4.30909 4.48173 3.03097 7.00204 3.03097C7.85423 3.03097 8.62908 3.17722 9.33204 3.47456L8.23361 4.573C7.7134 4.29544 7.11776 4.19243 6.53455 4.27916C5.95134 4.3659 5.41146 4.63778 4.99453 5.05471C4.57761 5.47163 4.30572 6.01152 4.21899 6.59473C4.13226 7.17793 4.23527 7.77357 4.51282 8.29378L3.20939 9.59722C2.48798 8.9605 1.86611 8.09784 1.33486 6.99972ZM5.18954 6.99972C5.18982 6.72419 5.25508 6.45262 5.38003 6.20706C5.50498 5.96149 5.68609 5.74887 5.90865 5.58645C6.13122 5.42403 6.38896 5.31641 6.66093 5.27232C6.9329 5.22822 7.21144 5.24891 7.47392 5.33269L5.27251 7.53409C5.21733 7.36134 5.18934 7.18107 5.18954 6.99972Z" fill="black" fill-opacity="0.45"/>
<path d="M6.93957 8.75225C6.88551 8.75225 6.83223 8.74975 6.77941 8.74491L5.9541 9.57022C6.45049 9.76032 6.99132 9.80257 7.51121 9.69185C8.0311 9.58113 8.50779 9.32219 8.88365 8.94633C9.25951 8.57047 9.51845 8.09378 9.62917 7.57389C9.73989 7.05401 9.69764 6.51318 9.50754 6.01678L8.68223 6.8421C8.68707 6.89491 8.68957 6.94819 8.68957 7.00225C8.68969 7.2321 8.64451 7.45972 8.55661 7.6721C8.46871 7.88447 8.33981 8.07744 8.17728 8.23996C8.01475 8.40249 7.82179 8.53139 7.60941 8.61929C7.39704 8.7072 7.16942 8.75238 6.93957 8.75225Z" fill="black" fill-opacity="0.45"/>
</g>
<defs>
<clipPath id="clip0_3445_12516">
<rect width="14" height="14" fill="white" transform="translate(0.00195312 0.00119019)"/>
</clipPath>
</defs>
</svg>
