<svg width="14" height="14" viewBox="0 0 14 14" fill="none" xmlns="http://www.w3.org/2000/svg">
<path d="M7.00018 3.52853C4.79491 3.52853 3.18026 4.64689 2.04139 7.00119C3.18026 9.35549 4.79491 10.4738 7.00018 10.4738C9.20682 10.4738 10.8215 9.35549 11.959 7.00119C10.8201 4.64689 9.20546 3.52853 7.00018 3.52853ZM6.9455 9.40744C5.61659 9.40744 4.53925 8.3301 4.53925 7.00119C4.53925 5.67228 5.61659 4.59494 6.9455 4.59494C8.2744 4.59494 9.35175 5.67228 9.35175 7.00119C9.35175 8.3301 8.2744 9.40744 6.9455 9.40744Z" fill="#E6F7FF"/>
<path d="M12.8818 6.64846C11.5857 3.91818 9.62651 2.54416 7.00014 2.54416C4.37241 2.54416 2.41459 3.91818 1.1185 6.64982C1.06651 6.7599 1.03955 6.88013 1.03955 7.00187C1.03955 7.12361 1.06651 7.24384 1.1185 7.35392C2.41459 10.0842 4.37377 11.4582 7.00014 11.4582C9.62787 11.4582 11.5857 10.0842 12.8818 7.35256C12.9871 7.13107 12.9871 6.87404 12.8818 6.64846ZM7.00014 10.4738C4.79487 10.4738 3.18022 9.35549 2.04135 7.00119C3.18022 4.64689 4.79487 3.52853 7.00014 3.52853C9.20541 3.52853 10.8201 4.64689 11.9589 7.00119C10.8214 9.35549 9.20678 10.4738 7.00014 10.4738Z" fill="#1890FF"/>
<path d="M6.94542 4.59494C5.61651 4.59494 4.53917 5.67228 4.53917 7.00119C4.53917 8.3301 5.61651 9.40744 6.94542 9.40744C8.27433 9.40744 9.35167 8.3301 9.35167 7.00119C9.35167 5.67228 8.27433 4.59494 6.94542 4.59494ZM6.94542 8.53244C6.09913 8.53244 5.41417 7.84748 5.41417 7.00119C5.41417 6.1549 6.09913 5.46994 6.94542 5.46994C7.79171 5.46994 8.47667 6.1549 8.47667 7.00119C8.47667 7.84748 7.79171 8.53244 6.94542 8.53244Z" fill="#1890FF"/>
</svg>
