<svg width="14" height="14" viewBox="0 0 14 14" fill="none" xmlns="http://www.w3.org/2000/svg">
<g clip-path="url(#clip0_3390_1754)">
<rect width="14" height="14" fill="white" fill-opacity="0.01"/>
<g clip-path="url(#clip1_3390_1754)">
<path d="M12.2819 0.751953C12.5582 0.75215 12.7818 0.975565 12.7819 1.25195V3.25391C13.0426 3.26972 13.2506 3.48651 13.2506 3.75195V5.80957C13.2506 6.19082 13.1735 6.56172 13.025 6.91016C12.9582 7.06778 12.877 7.21895 12.7819 7.36133V12.752C12.7819 13.0284 12.5583 13.2518 12.2819 13.252H1.71937C1.44281 13.252 1.21937 13.027 1.21937 12.752V7.36133C1.12566 7.21921 1.0424 7.06945 0.975229 6.91016C0.825807 6.56273 0.749619 6.18776 0.75062 5.80957V3.75195C0.750679 3.48638 0.95847 3.26953 1.21937 3.25391V1.25195C1.21943 0.975443 1.44285 0.751953 1.71937 0.751953H12.2819ZM5.28968 8.06152C5.10374 8.20059 4.89984 8.3166 4.68421 8.40723C4.33437 8.55396 3.96567 8.62695 3.5846 8.62695C3.20354 8.62695 2.83329 8.55396 2.485 8.40723C2.43673 8.38854 2.38953 8.36652 2.34437 8.34473V12.1289H5.00062V10.002C5.00068 9.72544 5.2241 9.50195 5.50062 9.50195H8.50062C8.77698 9.50215 9.00056 9.72556 9.00062 10.002V12.1289H11.6627V8.34473C11.6159 8.36657 11.5689 8.38694 11.5221 8.40723C11.1723 8.554 10.8035 8.62691 10.4225 8.62695C10.0412 8.62695 9.67035 8.5541 9.32191 8.40723C9.10686 8.31756 8.90392 8.20117 8.71742 8.06152C8.71429 8.05996 8.71078 8.05996 8.70765 8.06152C8.5218 8.20048 8.31867 8.31665 8.10316 8.40723C7.75332 8.55398 7.38461 8.62693 7.00355 8.62695C6.6223 8.62695 6.2514 8.5541 5.90296 8.40723C5.68797 8.31757 5.48493 8.20114 5.29847 8.06152C5.29548 8.06008 5.29267 8.06011 5.28968 8.06152ZM6.00062 10.502V12.1289H8.00062V10.502H6.00062ZM1.88343 4.37695C1.87878 4.37695 1.87567 4.38014 1.87562 4.38477V5.80957C1.87562 6.74381 2.64065 7.50173 3.58265 7.50195C3.88358 7.50257 4.18019 7.42446 4.44105 7.27441C4.70183 7.12439 4.91822 6.90782 5.06898 6.64746C5.11429 6.56777 5.20042 6.51758 5.29261 6.51758C5.38473 6.51764 5.4694 6.56782 5.51624 6.64746C5.81003 7.15828 6.36477 7.50195 7.00062 7.50195C7.30185 7.50281 7.59813 7.42405 7.85902 7.27344C8.11985 7.12283 8.3361 6.90578 8.48597 6.64453C8.53128 6.56641 8.61468 6.51758 8.70374 6.51758H8.71253C8.80316 6.51758 8.885 6.56641 8.93031 6.64453C9.22411 7.15683 9.78026 7.50195 10.4176 7.50195C11.3597 7.50186 12.1256 6.74389 12.1256 5.80957V4.38477C12.1256 4.38026 12.1223 4.37711 12.1178 4.37695H1.88343ZM2.34437 1.87695V3.25195H11.6569V1.87695H2.34437Z" fill="black" fill-opacity="0.85"/>
</g>
</g>
<defs>
<clipPath id="clip0_3390_1754">
<rect width="14" height="14" fill="white"/>
</clipPath>
<clipPath id="clip1_3390_1754">
<rect width="14" height="14" fill="white"/>
</clipPath>
</defs>
</svg>
